<?xml version="1.0" encoding="UTF-8"?>
<svg version="1.1" xmlns="http://www.w3.org/2000/svg" width="600" height="600">
<path d="M0 0 C198 0 396 0 600 0 C600 198 600 396 600 600 C402 600 204 600 0 600 C0 402 0 204 0 0 Z " fill="#191724" transform="translate(0,0)"/>
<path d="M0 0 C-1.40784077 4.2235223 -4.37688909 5.13479792 -8.125 7.0625 C-8.77726562 7.41376953 -9.42953125 7.76503906 -10.1015625 8.12695312 C-17.44647237 11.98157348 -23.56842015 13.16497272 -31.84277344 12.87036133 C-45.42087095 12.39071085 -57.32567091 14.22669509 -70.4609375 17.46875 C-76.72694779 19.0004001 -82.97736474 20.01588681 -89.375 20.8125 C-90.80863892 20.99353271 -90.80863892 20.99353271 -92.27124023 21.17822266 C-97.1348176 21.75819169 -101.91296761 22.07739815 -106.8125 22.1875 C-114.86458208 22.65038707 -121.98954829 26.63087154 -129.09985352 30.16796875 C-132.52110242 31.66605641 -135.75736116 32.13352268 -139.46484375 32.359375 C-160.88021881 33.85682918 -184.72059275 36.44951554 -200 53 C-205.33399402 59.15303341 -207.93183355 64.85187031 -209.58984375 72.82421875 C-213.05335272 80.62430958 -220.8876785 84.25797204 -228.25 87.75 C-236.94784025 92.0984986 -243.237208 97.03580824 -250 104 C-250.69867188 104.63035156 -251.39734375 105.26070313 -252.1171875 105.91015625 C-264.36848087 117.10360702 -272.4238222 132.74669568 -278 148.125 C-283.58494759 163.4989889 -292.01122198 173.84716071 -307 181 C-322.85548755 187.71449566 -339.52298645 192.3774664 -356.0390625 197.14501953 C-372.64433445 201.93984657 -385.08072622 206.55769028 -397.23632812 219.35424805 C-403.4078826 225.82847131 -410.01718129 230.76343536 -417.5 235.625 C-428.16714496 242.63299099 -438.24711192 249.84907995 -447.25 258.9375 C-448.14658325 259.83819214 -448.14658325 259.83819214 -449.0612793 260.75708008 C-454.06581008 265.88114255 -458.70418101 271.11254302 -461 278 C-461.66 278 -462.32 278 -463 278 C-462.55209509 273.0152518 -461.33476237 270.70204245 -457.875 267.125 C-457.05515625 266.26132812 -456.2353125 265.39765625 -455.390625 264.5078125 C-454.60171875 263.68023437 -453.8128125 262.85265625 -453 262 C-451.86797514 260.67262572 -450.74235759 259.3397443 -449.625 258 C-441.3652183 248.66123781 -432.12269309 241.81589428 -421.70068359 235.08544922 C-412.9991599 229.45830141 -405.24771168 223.53419972 -398.125 216 C-385.84802541 203.4142751 -372.23228495 198.46056376 -355.60046387 193.88226318 C-314.50541038 184.24482074 -314.50541038 184.24482074 -284.48828125 157.15234375 C-282.5795365 153.10941195 -281.11056136 148.96338085 -279.625 144.75 C-275.12412907 131.99794797 -268.92757207 121.25143257 -260 111 C-259.30132812 110.18015625 -258.60265625 109.3603125 -257.8828125 108.515625 C-255.64500573 105.95130549 -253.34384437 103.46761173 -251 101 C-249.89011719 99.79730469 -249.89011719 99.79730469 -248.7578125 98.5703125 C-241.94468598 91.75718598 -234.2427151 87.55294325 -225.7043457 83.19775391 C-217.06348964 78.90240216 -217.06348964 78.90240216 -211.91796875 71.0546875 C-211.55638672 69.48074219 -211.55638672 69.48074219 -211.1875 67.875 C-208.17133417 57.19777296 -201.14357901 48.2750052 -192 42 C-176.65442202 33.72222264 -158.69122067 30.47364075 -141.4375 29.6875 C-133.70120508 29.15981119 -126.86017181 26.46442822 -119.97875977 22.97509766 C-114.08179774 20.09080614 -108.95022717 19.32671032 -102.4375 19 C-94.08581492 18.42238142 -85.88186378 17.51488013 -77.625 16.125 C-76.10676636 15.87024902 -76.10676636 15.87024902 -74.55786133 15.61035156 C-69.49335937 14.72368189 -64.55601805 13.66125358 -59.60205078 12.29272461 C-51.52345392 10.07505101 -44.12567276 9.86946046 -35.75 10.0625 C-22.124596 10.35747695 -11.17941281 0 0 0 Z " fill="#201E2C" transform="translate(600,158)"/>
<path d="M0 0 C0.33 0.66 0.66 1.32 1 2 C-3.41262878 9.41321635 -9.68820649 15.28094817 -18 18 C-28.00605575 20.35915136 -36.77438603 20.03968513 -46.82128906 18.16967773 C-55.92044367 16.48241112 -63.16973245 15.82790123 -71.375 20.5 C-80.23133491 25.04449214 -87.26659446 24.67458554 -96.98046875 22.99609375 C-104.05855697 21.88876394 -111.03420632 21.63748964 -118.1875 21.5 C-127.95166117 21.24661989 -137.52464257 20.71257309 -147.203125 19.40234375 C-155.4067249 18.35973869 -155.4067249 18.35973869 -163.15234375 20.578125 C-166.52479158 23.4463248 -169.5334097 26.5277928 -172.5625 29.75 C-178.80041689 36.21661529 -185.15877767 40.66043996 -193 45 C-194.72723629 46.72723629 -194.12944331 49.07408647 -194.140625 51.42578125 C-194.16962891 53.08577148 -194.16962891 53.08577148 -194.19921875 54.77929688 C-194.23290203 57.12287572 -194.25128892 59.46672745 -194.25390625 61.81054688 C-194.44041173 70.26709795 -194.44041173 70.26709795 -196.9296875 73.52734375 C-202.04967349 75.98311311 -207.2370876 78.20964164 -212.51953125 80.29296875 C-219.42178892 83.20956184 -224.74051852 87.00344277 -227.91015625 94.01269531 C-228.56489238 95.99541558 -229.08238027 97.96842103 -229.5625 100 C-232.40093397 110.18483102 -236.26810219 115.40067066 -245.2421875 120.96875 C-252.04300018 125.97784716 -257.17679946 131.83493593 -261.0625 139.3125 C-261.51165771 140.17222412 -261.96081543 141.03194824 -262.42358398 141.91772461 C-270.36284832 158.00859021 -275.44815558 175.52890369 -281.15765381 192.49743652 C-299.80695864 247.90347932 -299.80695864 247.90347932 -316 256 C-315.42724517 252.06344697 -313.52006766 250.00831045 -310.9375 247.0625 C-295.55306874 228.67444168 -288.98073338 206.72485563 -281.46704102 184.36865234 C-262.46936124 127.97489686 -262.46936124 127.97489686 -243.25 115.875 C-235.97485771 111.1764706 -233.94052182 106.14285998 -231.625 98.0625 C-229.4012083 90.56061373 -227.30799842 84.94950029 -220.11865234 80.95458984 C-215.81413725 78.74187839 -211.41714481 76.77568044 -206.97216797 74.86474609 C-202.15304535 72.95146127 -202.15304535 72.95146127 -198 70 C-197.90304628 68.27813195 -197.86798352 66.552699 -197.859375 64.828125 C-197.83037109 63.24257812 -197.83037109 63.24257812 -197.80078125 61.625 C-197.76716487 59.39080353 -197.74871634 57.15632282 -197.74609375 54.921875 C-197.55813226 46.770282 -197.55813226 46.770282 -194.80078125 42.96484375 C-193.41439453 41.99224609 -193.41439453 41.99224609 -192 41 C-191.09121094 40.35675781 -190.18242187 39.71351562 -189.24609375 39.05078125 C-188.31925781 38.47714844 -187.39242187 37.90351562 -186.4375 37.3125 C-185.04337891 36.44044922 -185.04337891 36.44044922 -183.62109375 35.55078125 C-181 34 -181 34 -178.78515625 33.04296875 C-176.49114507 31.70270401 -176.10085201 30.38591033 -175 28 C-169.78964969 21.8673578 -164.41495181 16.4272534 -156.125 15.625 C-151.2857826 15.84168138 -146.5048549 16.57980945 -141.70654297 17.21728516 C-132.82287724 18.29586758 -123.88808097 18.40529643 -114.94848633 18.57006836 C-107.80497806 18.73582517 -100.94217874 19.30197537 -93.89892578 20.52514648 C-85.21857825 21.94701577 -79.16866546 21.44797227 -71.375 17.5 C-61.16026129 12.34097664 -53.48426607 13.87234088 -42.59448242 15.93115234 C-31.68397021 17.95228198 -20.82829547 17.35033607 -11.1875 11.3125 C-6.79092894 8.12739286 -3.35107043 4.24540756 0 0 Z " fill="#201E2D" transform="translate(316,38)"/>
<path d="M0 0 C0.66 0 1.32 0 2 0 C-3.42586207 11.40692863 -12.78097521 15.48148115 -24 20 C-31.05332533 22.35110844 -40.23525059 22.10855006 -47.07421875 19.0625 C-49.45708071 17.74781754 -51.75343078 16.31513912 -54.0625 14.875 C-58.07170521 12.42151399 -61.15953752 10.71526691 -66 11 C-70.34657382 14.55384475 -71.97246829 17.8692118 -73.75 23.125 C-78.29737876 35.42649276 -86.74454424 43.15992185 -97 51 C-110.62471161 59.93003118 -110.62471161 59.93003118 -118.66796875 72.703125 C-118.77753906 73.79109375 -118.88710938 74.8790625 -119 76 C-103.87523243 84.87298062 -103.87523243 84.87298062 -87.0625 86.91015625 C-83.20725362 85.20888275 -80.42892197 82.09825281 -77.41796875 79.21484375 C-72.34090866 74.56428951 -66.81241065 72.93692904 -60.3125 70.9375 C-53.57467665 68.81173237 -47.34380147 65.90951475 -41.0625 62.6875 C-40.18698486 62.24978271 -39.31146973 61.81206543 -38.40942383 61.36108398 C-32.93499421 58.47752614 -28.99207041 55.21771865 -24.75366211 50.72827148 C-22.59158399 48.59749729 -20.6450699 47.57513936 -17.75 46.6875 C-16.82445312 46.38972656 -15.89890625 46.09195313 -14.9453125 45.78515625 C-10.9095579 44.70931185 -6.83654351 43.84379627 -2.7265625 43.1015625 C2.41385164 41.02477627 4.76893111 36.79734006 6.94921875 31.94921875 C7.53901627 30.53292004 8.11838382 29.11223504 8.6875 27.6875 C11.74833426 20.12583287 11.74833426 20.12583287 14 19 C13.43275025 24.32213736 11.62639777 28.41588824 9.25 33.125 C8.91484375 33.82753906 8.5796875 34.53007813 8.234375 35.25390625 C6.10691822 39.51687836 4.19384817 42.48609101 0 45 C-2.67943848 45.8229506 -5.20906888 46.49756022 -7.9375 47.0625 C-14.7814525 48.52586613 -20.27133156 50.03006563 -25.19921875 55.30859375 C-29.45116599 59.74221828 -34.37350433 62.30700182 -39.8125 65.0625 C-40.82207764 65.58561768 -41.83165527 66.10873535 -42.87182617 66.64770508 C-49.77697156 70.13321126 -56.62978246 72.67207886 -64.03515625 74.83740234 C-69.86331634 76.65803154 -73.72262125 79.48342023 -77.95703125 83.94921875 C-82.16129356 88.16955854 -86.0754973 89.70377487 -92 90 C-98.83425754 89.09414366 -104.78191783 86.5509748 -110.9375 83.5625 C-112.21077148 82.96985352 -112.21077148 82.96985352 -113.50976562 82.36523438 C-119.74350428 79.38474358 -119.74350428 79.38474358 -122 76 C-122.64671653 72.91013215 -122.58400615 70.93770001 -120.890625 68.21875 C-114.00965462 59.90708281 -104.97431102 53.2572084 -96.44799805 46.71777344 C-86.29397413 38.89045837 -80.68271415 32.361181 -75.92626953 20.43334961 C-73.97915365 15.66225412 -72.07248884 12.36110858 -68 9 C-63.76164791 7.52579058 -61.02965617 7.96846858 -57 9.90234375 C-53.67851152 11.72527004 -50.44800105 13.68929127 -47.234375 15.6953125 C-41.19746159 19.22036334 -33.75527558 19.09576768 -27 18 C-15.87999437 14.79910118 -6.47668633 9.71502949 0 0 Z " fill="#201E2D" transform="translate(510,36)"/>
<path d="M0 0 C0.33 0.99 0.66 1.98 1 3 C-8.43784451 13.23728546 -19.20087136 21.07843493 -31 28.375 C-37.13912352 32.17474274 -42.4975883 36.65090842 -47.8515625 41.48388672 C-53.84616873 46.88596442 -58.88007271 51.0755426 -67.2265625 51.17578125 C-68.77537109 51.21155273 -68.77537109 51.21155273 -70.35546875 51.24804688 C-72.51152629 51.2905498 -74.66783273 51.32204975 -76.82421875 51.34179688 C-87.21006185 51.6184953 -94.10192011 54.37130077 -101.4375 61.6875 C-107.97548283 68.01273245 -107.97548283 68.01273245 -114.125 68.3125 C-121.15148942 68.93970281 -125.39618011 71.23323632 -131.18359375 75.16015625 C-140.62530431 81.5554327 -148.54677005 84.75473768 -160.125 85.375 C-172.17371178 86.28138818 -179.71362949 93.49303354 -187.44238281 102.13378906 C-191.40296989 106.87904418 -194.64524034 112.13236677 -197.94482422 117.34619141 C-205.46355955 129.13053041 -215.18993618 135.70844254 -228 141 C-232.7916064 143.0535456 -234.6676687 144.34176255 -237 149 C-237.78173395 152.33982981 -237.78173395 152.33982981 -238.1875 155.8125 C-238.34605469 156.97394531 -238.50460937 158.13539063 -238.66796875 159.33203125 C-238.83232422 160.65267578 -238.83232422 160.65267578 -239 162 C-239.33 162 -239.66 162 -240 162 C-240.57495417 147.64744042 -240.57495417 147.64744042 -237 143 C-233.37664886 139.9340875 -229.65134462 138.42769787 -225.25 136.6875 C-211.64898364 131.1594537 -204.08171362 122.44888024 -196.47631836 110.28833008 C-189.57676521 99.42827314 -178.99353425 86.31522273 -166 83 C-162.21102693 82.46016576 -158.40180416 82.13003354 -154.59179688 81.77661133 C-144.9655227 80.81779114 -138.66401521 76.88271679 -130.625 71.6796875 C-125.40243287 68.33786627 -121.47972669 65.92132782 -115.1875 65.8125 C-107.34061545 65.35234319 -102.1999008 58.97883684 -96.73828125 53.89453125 C-88.64840345 48.29739754 -79.84580937 48.56668011 -70.3515625 48.56054688 C-61.51123784 48.39099038 -56.84911041 46.09162405 -50.4375 39.875 C-43.29166629 33.27967613 -35.35605683 27.7893434 -27.19140625 22.53125 C-17.02132833 15.96718669 -8.54269147 8.60271038 0 0 Z " fill="#211F2D" transform="translate(599,293)"/>
<path d="M0 0 C18.03464353 3.48994723 34.06910107 10.56450986 49.25 20.875 C62.83784871 30.0699276 79.07659173 40 96 40 C100.83965765 38.70234947 100.83965765 38.70234947 104.18603516 35.23925781 C105.19036514 33.06482967 106.0237029 30.88634567 106.8125 28.625 C107.24079102 27.49191406 107.24079102 27.49191406 107.67773438 26.3359375 C108.2260655 24.8805064 108.76451771 23.42130282 109.29150391 21.95800781 C110.13904937 19.61572159 111.05835131 17.30589095 112 15 C112.33 15 112.66 15 113 15 C112.48819657 21.00022182 111.18671152 25.82212234 108.75 31.3125 C108.46253906 32.01439453 108.17507812 32.71628906 107.87890625 33.43945312 C106.01297321 37.71317312 104.52513029 40.19397619 100 42 C82.56000871 44.91476177 63.39493071 34.24283478 49.46484375 24.6328125 C48.42457031 23.88773438 47.38429688 23.14265625 46.3125 22.375 C31.89016068 12.04991617 13.25910139 3.43933095 -4.6875 2.625 C-5.43386719 2.57601563 -6.18023437 2.52703125 -6.94921875 2.4765625 C-9.16502688 2.83883959 -9.16502688 2.83883959 -10.6484375 4.84765625 C-12.95598671 10.22971467 -13.51015739 15.95907782 -14.37304688 21.72070312 C-15.68665107 29.77271212 -17.59736926 36.44777004 -24 41.875 C-33.68899141 51.09575019 -34.16304408 65.71229579 -35.0625 78.3125 C-35.21737847 80.41295927 -35.3748369 82.51323025 -35.53515625 84.61328125 C-35.63389038 85.98673706 -35.63389038 85.98673706 -35.73461914 87.38793945 C-35.99751696 89.97556025 -36.44705214 92.45999429 -37 95 C-37.66 95 -38.32 95 -39 95 C-36.35802256 49.68795239 -36.35802256 49.68795239 -25.4375 39.5625 C-17.96850328 32.3683365 -17.08624046 22.23335204 -15.6574707 12.39990234 C-14.10058411 2.84179002 -10.06270372 -1.48511627 0 0 Z " fill="#211F2D" transform="translate(133,505)"/>
<path d="M0 0 C3.60217616 1.91135878 5.83057932 3.79582636 8.4375 6.9375 C12.46436258 11.75009187 17.01020035 15.48754867 23.39501953 16.30761719 C31.55942312 16.9899569 39.68374825 17.21636036 47.875 17.25 C49.15375 17.270625 50.4325 17.29125 51.75 17.3125 C52.98492188 17.31765625 54.21984375 17.3228125 55.4921875 17.328125 C56.59933105 17.3374707 57.70647461 17.34681641 58.84716797 17.35644531 C62.44720098 16.94944143 64.8401261 15.71985233 68 14 C68.66 14 69.32 14 70 14 C70 14.66 70 15.32 70 16 C63.03847906 20.29378481 57.44231242 20.52828752 49.375 20.3125 C48.22016113 20.29485596 47.06532227 20.27721191 45.87548828 20.2590332 C42.58235127 20.19854701 39.29193524 20.1064294 36 20 C34.79150391 19.96664551 34.79150391 19.96664551 33.55859375 19.93261719 C19.72060756 19.49937183 13.85746964 16.50297398 4.5390625 6.6171875 C2.28407828 4.00430422 2.28407828 4.00430422 0 3 C-5.31150725 3.13809919 -9.99113219 4.29698494 -15 6 C-16.83187055 6.28055675 -18.6653958 6.55041369 -20.5 6.8125 C-28.4083203 8.21248643 -32.09115489 13.0400161 -37.01953125 18.92578125 C-39.1538436 21.16112614 -41.40124862 22.74054843 -43.9375 24.5 C-50.78900326 29.76878518 -53.61662853 37.2788702 -57 45 C-62.63023784 57.80505421 -70.19035524 62.57321327 -82.9375 68 C-91.18086607 71.52143793 -98.21427774 75.09998381 -105 81 C-105.97710937 81.81726563 -106.95421875 82.63453125 -107.9609375 83.4765625 C-109.15589844 84.54003906 -109.15589844 84.54003906 -110.375 85.625 C-111.59316406 86.69621094 -111.59316406 86.69621094 -112.8359375 87.7890625 C-116.07619442 91.09950549 -118.15294916 94.42592544 -119 99 C-119.66 99 -120.32 99 -121 99 C-120.59676845 90.93536897 -115.39740168 86.09956191 -109.69311523 80.92163086 C-99.52765734 72.05900751 -87.842502 66.43895236 -75.3659668 61.52050781 C-67.63263495 58.34511434 -64.33609364 53.42738986 -60.9375 46.1875 C-60.27994792 44.82682292 -59.62239583 43.46614583 -58.96484375 42.10546875 C-57.96421833 40.01935568 -56.96794745 37.93173324 -55.98461914 35.83740234 C-54.21163018 32.14655151 -52.59635669 29.08066537 -49.5625 26.25 C-48.96179688 25.68667969 -48.36109375 25.12335938 -47.7421875 24.54296875 C-41.4835443 19 -41.4835443 19 -39 19 C-38.74089844 18.42507813 -38.48179687 17.85015625 -38.21484375 17.2578125 C-36.90115939 14.81630266 -35.39702947 12.95018817 -33.5625 10.875 C-32.66724609 9.85019531 -32.66724609 9.85019531 -31.75390625 8.8046875 C-28.14727975 5.09363752 -24.57594434 4.36462281 -19.6875 3.5 C-0.3391199 -0.04238999 -0.3391199 -0.04238999 0 0 Z " fill="#211F2D" transform="translate(509,424)"/>
<path d="M0 0 C0 0.66 0 1.32 0 2 C-0.59039062 2.54914062 -1.18078125 3.09828125 -1.7890625 3.6640625 C-4.54121574 6.57181451 -5.87720378 9.72716955 -7.375 13.375 C-7.67535156 14.07963379 -7.97570312 14.78426758 -8.28515625 15.51025391 C-9.73925724 18.9299988 -11.15055767 22.36567705 -12.5390625 25.8125 C-15.59473048 33.26375454 -19.02932454 39.65614707 -24 46 C-24.62132812 46.84046875 -25.24265625 47.6809375 -25.8828125 48.546875 C-28.14714499 51.17049271 -30.33081184 52.83173039 -33.25 54.6875 C-34.58804688 55.55955078 -34.58804688 55.55955078 -35.953125 56.44921875 C-42.89876327 59.98437054 -49.54533728 60.33218877 -57.1875 60.25 C-58.5811377 60.23767334 -58.5811377 60.23767334 -60.00292969 60.22509766 C-81.15487355 59.8827498 -99.70813312 52.79382814 -117.24609375 41.23046875 C-117.95628662 40.76672852 -118.66647949 40.30298828 -119.39819336 39.82519531 C-120.76463756 38.92301517 -122.11926598 38.00258622 -123.45922852 37.06152344 C-126.819392 34.8275088 -128.50910387 34.00577525 -132.65234375 33.95703125 C-136.42866935 35.13355276 -138.25512878 36.49284192 -141.0625 39.25 C-141.91070312 40.0646875 -142.75890625 40.879375 -143.6328125 41.71875 C-144.41398438 42.4715625 -145.19515625 43.224375 -146 44 C-147.13463317 44.93049415 -148.27828725 45.85031249 -149.4375 46.75 C-154.109515 50.85225707 -155.38836595 54.72678686 -156.1875 60.8125 C-156.42533203 62.55466797 -156.42533203 62.55466797 -156.66796875 64.33203125 C-156.77753906 65.21246094 -156.88710937 66.09289062 -157 67 C-157.66 67 -158.32 67 -159 67 C-159.49656772 59.05491643 -158.4952896 52.83298301 -153.4375 46.5 C-149.42115675 42.12308728 -144.72467144 38.57250116 -140 35 C-139.42894531 34.52820313 -138.85789063 34.05640625 -138.26953125 33.5703125 C-135.64572348 31.53035472 -134.20020165 30.99403866 -130.8515625 31.09375 C-126.02523787 32.2293558 -122.66812802 34.36456711 -118.5625 37.0625 C-99.19833904 49.28893654 -80.87076593 57.08430204 -57.625 57.3125 C-56.64789063 57.34150391 -55.67078125 57.37050781 -54.6640625 57.40039062 C-44.38858263 57.48920794 -35.45745583 54.19223251 -28 47 C-20.28709123 38.10177408 -15.81476437 26.85499625 -11.6809082 15.95410156 C-5.61141304 0 -5.61141304 0 0 0 Z " fill="#211F2D" transform="translate(291,533)"/>
<path d="M0 0 C0 0.66 0 1.32 0 2 C-0.98097656 2.32871094 -1.96195313 2.65742188 -2.97265625 2.99609375 C-15.86839476 7.47988743 -26.93353977 13.95918164 -38.0703125 21.80859375 C-42.20405904 24.36080568 -45.67527704 25.18375037 -50.5 25.3125 C-54.45543121 25.61513031 -55.69730015 25.76814479 -58.9375 28.25 C-61.01281555 30.93160184 -61.01281555 30.93160184 -62.65234375 33.671875 C-65 36 -65 36 -68.5390625 36.3125 C-69.90216212 36.22419732 -71.26425795 36.11924356 -72.625 36 C-82.72294747 35.59148488 -88.4905288 38.67911655 -96.1875 45.1875 C-106.83212431 55.31409707 -111.54338847 66.02428859 -112.9375 80.5 C-114.44293592 95.31725714 -122.11593818 106.60453974 -129.86425781 119.01391602 C-131.14105115 121.09577408 -131.14105115 121.09577408 -132 124 C-132.66 124 -133.32 124 -134 124 C-133.4351071 120.30917755 -132.47099217 117.76009149 -130.453125 114.62890625 C-129.93991699 113.81462158 -129.42670898 113.00033691 -128.89794922 112.16137695 C-128.35412598 111.30374756 -127.81030273 110.44611816 -127.25 109.5625 C-120.14478319 97.97654408 -116.06980997 87.77313029 -114.79516602 74.19262695 C-113.3641657 60.34592005 -105.97960881 49.68499123 -95.49609375 40.86328125 C-88.16279098 35.38912566 -82.39521314 32.63422401 -73.125 33.125 C-68.10657523 33.54606264 -68.10657523 33.54606264 -63.890625 31.3125 C-62.34324465 29.18628402 -62.34324465 29.18628402 -61.2734375 26.9453125 C-59.53217915 24.28535342 -58.0280834 23.86949252 -55 23 C-52.96299575 22.73254188 -50.92035712 22.50597973 -48.875 22.3125 C-41.55082839 21.25090659 -36.93139814 18.23316264 -31 14 C-9.95953757 0 -9.95953757 0 0 0 Z " fill="#211F2D" transform="translate(181,219)"/>
<path d="M0 0 C0.66 0 1.32 0 2 0 C1.688288 2.52093298 1.37565098 5.0417457 1.0625 7.5625 C0.97548828 8.26697266 0.88847656 8.97144531 0.79882812 9.69726562 C0.24615509 14.13911927 -0.35394596 18.57074664 -1 23 C4.0614803 21.44516618 8.49375316 19.83249802 13 17 C25.16272304 13.27186445 39.9164211 17.55233183 52.14575195 19.43652344 C73.85563873 22.75537605 94.87312532 22.19521531 116.74731445 20.88305664 C120.117998 20.68422628 123.48943071 20.50698444 126.86132812 20.33007812 C129.02351347 20.20442554 131.18562652 20.07752103 133.34765625 19.94921875 C134.34652359 19.89908127 135.34539093 19.84894379 136.37452698 19.79728699 C143.16825533 19.36296837 143.16825533 19.36296837 149 16 C150.57983825 13.75437394 150.57983825 13.75437394 151.6875 11.1875 C152.09742188 10.30707031 152.50734375 9.42664062 152.9296875 8.51953125 C154.11818691 5.72178628 155.15455783 2.92061839 156 0 C156.99 0.33 157.98 0.66 159 1 C158.11940685 3.23628294 157.22150098 5.46278121 156.3125 7.6875 C156.06822266 8.31333984 155.82394531 8.93917969 155.57226562 9.58398438 C153.16172632 15.41199712 149.86844006 19.54573203 144 22 C141.71740723 22.35440063 141.71740723 22.35440063 139.18164062 22.50244141 C138.22543823 22.5623526 137.26923584 22.62226379 136.28405762 22.68399048 C134.73579285 22.76693863 134.73579285 22.76693863 133.15625 22.8515625 C131.53789246 22.94719986 131.53789246 22.94719986 129.88684082 23.04476929 C127.5939103 23.17826973 125.30072392 23.30743512 123.00732422 23.43261719 C119.56795932 23.62127231 116.12975905 23.82505788 112.69140625 24.03125 C91.26691039 25.28080523 71.24611557 25.17148561 50 22 C29.27060473 17.61286951 29.27060473 17.61286951 9.5625 22 C5.83304628 24.19200545 3.38326445 25.60147711 -1 25 C-3 23 -3 23 -3.21875 19.90234375 C-2.98178587 15.67507301 -2.34096263 11.70291513 -1.5 7.5625 C-1.35691406 6.83095703 -1.21382812 6.09941406 -1.06640625 5.34570312 C-0.71678704 3.56264514 -0.35922312 1.78114797 0 0 Z " fill="#211F2D" transform="translate(132,0)"/>
<path d="M0 0 C0.66 0 1.32 0 2 0 C0.50612474 7.06195579 -2.12878483 13.39358697 -5 20 C-5.33128906 20.82113281 -5.66257812 21.64226563 -6.00390625 22.48828125 C-9.43080132 30.79025717 -14.24380873 36.43821075 -20.9375 42.375 C-35.83909297 55.73136059 -41.66872309 74.20986826 -47.76708984 92.7890625 C-50.57686602 101.24045393 -53.61171407 109.72405884 -59.5 116.5625 C-63.25311749 121.08330062 -66.9113631 125.66048711 -70.5 130.3125 C-71.06420654 131.04331787 -71.62841309 131.77413574 -72.2097168 132.52709961 C-75.55470205 136.92198852 -78.52495148 141.35812709 -81.3125 146.125 C-84.47452537 151.49842051 -87.97602609 155.325551 -93 159 C-93 156 -93 156 -91.78515625 154.703125 C-91.21667969 154.22359375 -90.64820312 153.7440625 -90.0625 153.25 C-86.57754465 149.93165606 -84.27851677 146.28489368 -81.9375 142.125 C-78.45162419 135.98825339 -74.43480124 130.63203094 -69.875 125.25 C-59.51494875 112.97696474 -53.35831951 100.99333055 -48.20849609 85.81396484 C-42.22901542 68.23583587 -36.49147379 52.55916513 -22.41259766 39.95727539 C-15.50680346 33.74735621 -11.03527051 28.92539335 -8 20 C-6.95821546 17.36042231 -5.88902784 14.73268405 -4.82006836 12.10400391 C-3.18729947 8.07962808 -1.59295163 4.0402668 0 0 Z " fill="#201E2D" transform="translate(94,0)"/>
<path d="M0 0 C0.71875 1.67578125 0.71875 1.67578125 1 4 C-0.40625 6.48046875 -0.40625 6.48046875 -2.5 9.1875 C-3.24378906 10.15429688 -3.98757812 11.12109375 -4.75390625 12.1171875 C-5.49511719 13.06851562 -6.23632812 14.01984375 -7 15 C-7.58652344 15.82757813 -8.17304688 16.65515625 -8.77734375 17.5078125 C-16.1904786 27.79898794 -26.88660372 32.0537251 -38.12817383 37.13378906 C-38.74587646 37.41963867 -39.3635791 37.70548828 -40 38 C-41.08039551 38.4655127 -41.08039551 38.4655127 -42.18261719 38.94042969 C-44.29866487 39.90362216 -44.29866487 39.90362216 -44.87109375 42.6875 C-45.05800781 43.780625 -45.24492187 44.87375 -45.4375 46 C-49.15066364 63.89784167 -62.64972426 79.67738612 -77.20703125 90.3515625 C-85.74015832 95.59493121 -95.00923218 98.79555454 -104.5078125 101.84765625 C-105.27754395 102.09523682 -106.04727539 102.34281738 -106.84033203 102.59790039 C-109.23273191 103.04333139 -110.71126405 102.7615036 -113 102 C-108.83319419 100.41899482 -104.66325998 98.87244824 -100.44921875 97.421875 C-80.0655495 90.32729921 -63.76549497 78.79237936 -53.109375 59.59375 C-50.79921016 54.79399003 -48.91848381 50.33077151 -48.0625 45.0625 C-47.11979452 39.97737706 -44.10895839 37.86436566 -40 35 C-36.12586683 32.88089177 -32.07877661 31.18089418 -28.02734375 29.43359375 C-18.96081405 25.37330196 -13.4762601 19.84471058 -7.6875 11.875 C-6.90149414 10.82119141 -6.90149414 10.82119141 -6.09960938 9.74609375 C-3.76432403 6.58254459 -1.68887616 3.56251154 0 0 Z " fill="#211F2D" transform="translate(210,260)"/>
<path d="M0 0 C0 0.66 0 1.32 0 2 C-4.11261997 3.37087332 -8.35615836 3.55084893 -12.66796875 3.81054688 C-19.70843217 4.4985618 -25.14093031 7.74573335 -29.79980469 13.04858398 C-31.46837028 15.27821841 -33.02693152 17.55199143 -34.5625 19.875 C-45.8744979 36.24480585 -45.8744979 36.24480585 -53 39 C-55.078125 38.94921875 -55.078125 38.94921875 -57.25 38.6875 C-61.34090266 38.58019764 -63.09862364 39.45551823 -66.125 42.1875 C-67.42154419 43.45335675 -68.71341313 44.72402415 -70 46 C-73.56235264 49.01799314 -76.73512619 51.03074282 -81.26171875 52.25 C-86.35475191 53.88947064 -89.54436949 56.61079754 -93.375 60.25 C-105.13410601 70.91281745 -105.13410601 70.91281745 -112 74 C-112.99 73.67 -113.98 73.34 -115 73 C-114.22398437 72.48953125 -113.44796875 71.9790625 -112.6484375 71.453125 C-106.3901143 67.24107931 -100.6489463 62.88354188 -95.0625 57.8125 C-89.40211252 52.71981632 -84.21715898 50.06923908 -77.0703125 47.3671875 C-72.68428049 45.41411981 -70.11813587 42.53805675 -67 39 C-63.67212974 36.28515847 -61.7155013 35.91007005 -57.5625 36.125 C-53.95120765 36.28148934 -52.29362211 35.89642577 -49.5625 33.5 C-48.716875 32.675 -47.87125 31.85 -47 31 C-46.34 31 -45.68 31 -45 31 C-44.72236816 30.41516846 -44.44473633 29.83033691 -44.15869141 29.2277832 C-38.72524742 18.7810541 -29.58827503 5.95202505 -18.125 2.125 C-12.16801695 0.62424538 -6.13527569 0 0 0 Z " fill="#211F2D" transform="translate(568,499)"/>
<path d="M0 0 C2 2 2 2 2.1875 5.125 C1.06620619 11.48339551 -5.53147606 15.24573895 -10.45703125 18.74609375 C-11.23433594 19.30425781 -12.01164062 19.86242187 -12.8125 20.4375 C-13.52019531 20.91058594 -14.22789063 21.38367188 -14.95703125 21.87109375 C-20.58700088 27.73788811 -22.41157193 36.98017206 -24.75 44.5625 C-25.06582031 45.57119141 -25.38164062 46.57988281 -25.70703125 47.61914062 C-26.47614633 50.07797824 -27.24036183 52.5382215 -28 55 C-28.66 55 -29.32 55 -30 55 C-28.61094654 48.28738207 -26.82100203 41.82504996 -24.6875 35.3125 C-24.40455078 34.40177734 -24.12160156 33.49105469 -23.83007812 32.55273438 C-21.04012632 24.03441145 -17.23807135 19.5995174 -9.875 14.3125 C-5.06053097 11.0667004 -5.06053097 11.0667004 -1 7 C-1 5.68 -1 4.36 -1 3 C-5.26604765 2.05198941 -8.46906939 1.96672143 -12.75 2.875 C-18.93204562 4.1751238 -25.06417587 4.36942285 -31.36230469 4.48193359 C-35.96964386 4.63034399 -39.38251808 4.82689206 -43 8 C-44.15918189 10.430859 -44.15918189 10.430859 -44.6875 13.125 C-45.07439719 14.76278564 -45.50165348 16.39261641 -46 18 C-46.66 18.33 -47.32 18.66 -48 19 C-47.73260866 12.98369477 -47.12635909 8.69946452 -43 4 C-38.4872392 1.54390231 -33.94811532 1.64132505 -28.9375 1.5 C-23.27870757 1.28501342 -17.82766779 0.93539312 -12.25 -0.125 C-7.77983389 -0.96393874 -4.41398183 -1.15147352 0 0 Z " fill="#211F2D" transform="translate(57,450)"/>
<path d="M0 0 C0 0.66 0 1.32 0 2 C-0.90987671 2.33414917 -0.90987671 2.33414917 -1.83813477 2.67504883 C-8.26227379 5.12630818 -14.05345706 8.14769727 -19.9375 11.6875 C-21.59101567 12.67298004 -23.24590486 13.65616015 -24.90234375 14.63671875 C-25.61898193 15.06686279 -26.33562012 15.49700684 -27.07397461 15.94018555 C-31.19333011 18.20690151 -35.01175485 18.15045718 -39.578125 18.17578125 C-41.13738556 18.19600305 -42.69663054 18.2174548 -44.25585938 18.23999023 C-45.07207764 18.25117889 -45.8882959 18.26236755 -46.72924805 18.27389526 C-71.29238649 18.30415317 -71.29238649 18.30415317 -94.90625 24.19140625 C-97 25 -97 25 -100 24 C-93.96542397 20.65291539 -88.54332045 18.92525944 -81.75 17.8125 C-80.74291992 17.64089355 -79.73583984 17.46928711 -78.69824219 17.29248047 C-72.06778283 16.28640513 -65.5376833 15.845355 -58.84375 15.73828125 C-57.6571579 15.71804649 -57.6571579 15.71804649 -56.44659424 15.69740295 C-52.50905811 15.64085499 -48.57725933 15.62995337 -44.63964844 15.67895508 C-35.14475478 15.70196987 -28.16932404 14.14483923 -20 9 C-19.05495605 8.43958008 -18.10991211 7.87916016 -17.13623047 7.30175781 C-15.4803683 6.31976683 -13.83058222 5.32744684 -12.1875 4.32421875 C-5.04424779 0 -5.04424779 0 0 0 Z " fill="#211F2D" transform="translate(331,128)"/>
<path d="M0 0 C0 0.66 0 1.32 0 2 C-0.68964844 2.20753906 -1.37929688 2.41507813 -2.08984375 2.62890625 C-9.27546451 4.9846859 -14.36242602 8.01363094 -20 13 C-20.92554688 13.7940625 -21.85109375 14.588125 -22.8046875 15.40625 C-28.98848847 20.81644133 -34.37254468 26.62909934 -39.63330078 32.93212891 C-45.97676557 40.46642462 -53.28089596 46.64694808 -61.1875 52.4921875 C-63.24400221 54.0573597 -63.24400221 54.0573597 -65 57 C-65.66 57 -66.32 57 -67 57 C-65.62711061 51.94485762 -62.49662382 49.70204176 -58.4375 46.75 C-51.17116166 41.25544103 -44.79856595 35.31318178 -38.875 28.375 C-14.32520121 0 -14.32520121 0 0 0 Z " fill="#211F2D" transform="translate(462,229)"/>
<path d="M0 0 C0.33 0 0.66 0 1 0 C0.49495176 7.32319955 -1.27018875 11.20194347 -6.5 16.5625 C-12.93523174 21.55179078 -21.06942289 23.75152637 -28.765625 26.03076172 C-37.17122162 28.52702055 -44.65787169 31.53262906 -52.2175293 36.01660156 C-56.89359694 38.72074883 -60.5963824 39.63334742 -66 40 C-64.68044588 37.36089176 -63.68647939 37.35710616 -60.9375 36.375 C-57.04264479 34.89934359 -53.4108886 33.18754067 -49.74243164 31.21655273 C-41.47307775 26.80727675 -33.11522913 23.96167076 -24.06958008 21.5222168 C-15.24350264 19.06827839 -8.3123206 15.74081001 -3 8 C-1.81594604 5.35975065 -0.9032913 2.75741555 0 0 Z " fill="#201E2C" transform="translate(530,297)"/>
<path d="M0 0 C0.33 0 0.66 0 1 0 C0.30720521 9.69912712 -3.68031468 16.05312792 -9.875 23.375 C-13.35327442 27.57806722 -16.55306766 31.6361543 -19.1875 36.4375 C-25.36776595 47.12053114 -36.52551114 53.17115692 -48 57 C-51.015625 57.21875 -51.015625 57.21875 -53 57 C-51.41722901 53.83445802 -48.16563333 53.41128919 -45 52.25 C-31.69482702 47.11593869 -23.72259476 40.03206344 -16.66796875 27.625 C-14.82202483 24.71990792 -12.70932134 22.2709927 -10.4375 19.6875 C-6.19140453 14.68240602 -3.9707872 9.74017057 -1.875 3.5546875 C-1 1 -1 1 0 0 Z " fill="#201E2C" transform="translate(343,138)"/>
<path d="M0 0 C0.495 0.99 0.495 0.99 1 2 C-2.4237163 6.34904502 -5.87505106 9.78683047 -10.25 13.1875 C-23.78120906 24.07129859 -32.66365459 37.7376297 -35.11499023 54.93457031 C-35.35700933 56.6314518 -35.67198957 58.31762395 -36 60 C-36.99 60.495 -36.99 60.495 -38 61 C-38.88416376 47.95858454 -33.90297369 34.79008873 -25.4140625 24.89453125 C-22.69384067 21.84478585 -19.86215865 18.9165564 -17 16 C-16.01773437 14.97712891 -16.01773437 14.97712891 -15.015625 13.93359375 C-11.41736825 10.2445553 -7.6083131 6.83660673 -3.69921875 3.48046875 C-2.42270555 2.36828828 -1.19716986 1.19716986 0 0 Z " fill="#211F2D" transform="translate(360,475)"/>
<path d="M0 0 C0.33 0.99 0.66 1.98 1 3 C-1.44445162 7.49779099 -4.38920484 11.62215924 -9 14 C-12.60379568 14.92479452 -16.18426054 15.62446871 -19.85546875 16.2265625 C-23.03789771 17.00932142 -24.0419321 17.48703989 -26 20 C-26.66 20.66 -27.32 21.32 -28 22 C-28.25 19.6875 -28.25 19.6875 -28 17 C-24.94246545 14.01491888 -22.28973391 13.53407929 -18.125 13.0625 C-11.73234389 12.11371162 -8.06131685 10.34761086 -3.75 5.4375 C-2.46593067 3.64897486 -1.22130526 1.83195789 0 0 Z " fill="#201E2D" transform="translate(585,452)"/>
<path d="M0 0 C0.99 0.33 1.98 0.66 3 1 C2.43035877 3.21190478 1.84363602 5.41941387 1.25 7.625 C0.92515625 8.85476563 0.6003125 10.08453125 0.265625 11.3515625 C-1.08515144 15.24546742 -2.47934877 17.77475728 -5 21 C-5.66 21 -6.32 21 -7 21 C-6.71253906 20.46246094 -6.42507813 19.92492187 -6.12890625 19.37109375 C-4.8355978 16.65469849 -3.88452175 13.91796862 -2.9375 11.0625 C-2.59589844 10.04285156 -2.25429688 9.02320313 -1.90234375 7.97265625 C-1.09741764 5.32092996 -0.48688805 2.72556918 0 0 Z " fill="#201E2C" transform="translate(322,0)"/>
<path d="M0 0 C0 0.99 0 1.98 0 3 C-0.99 2.67 -1.98 2.34 -3 2 C-6.05361413 3.12362425 -8.94504981 4.49915498 -11.89453125 5.87109375 C-15.1536556 7.05585719 -17.56277535 7.21065203 -21 7 C-19.39997286 3.79994571 -16.59748559 3.54894469 -13.3125 2.375 C-11.48138672 1.70597656 -11.48138672 1.70597656 -9.61328125 1.0234375 C-6.19059064 0.05398351 -3.52889967 -0.205988 0 0 Z " fill="#211F2D" transform="translate(589,229)"/>
<path d="M0 0 C-5.24286843 2.71505686 -10.3727867 5.18784656 -16 7 C-16.99 6.67 -17.98 6.34 -19 6 C-4.50928793 -1.50309598 -4.50928793 -1.50309598 0 0 Z " fill="#201E2D" transform="translate(419,530)"/>
<path d="M0 0 C0.88336837 2.4667645 1.1312406 3.63859372 0.22265625 6.140625 C-0.16019531 6.83671875 -0.54304687 7.5328125 -0.9375 8.25 C-1.31777344 8.95640625 -1.69804688 9.6628125 -2.08984375 10.390625 C-2.39019531 10.92171875 -2.69054687 11.4528125 -3 12 C-3.66 12 -4.32 12 -5 12 C-3.68938409 7.76570244 -2.05643741 3.92592596 0 0 Z " fill="#201E2D" transform="translate(589,238)"/>
</svg>
